<svg width="591" height="702" viewBox="0 0 591 702" fill="none" xmlns="http://www.w3.org/2000/svg">
<path id="fill" d="M375.5 435.5L281.672 391.813L281.672 391.813L375.5 435.5ZM346 158L402.051 245.009L346 158ZM468.504 207.902C525.612 210.385 573.919 166.103 576.402 108.996C578.885 51.8882 534.603 3.58055 477.496 1.09761L468.504 207.902ZM590.557 270.062C555.163 262.889 500.878 258.71 446.249 269.967C391.841 281.178 318.665 312.361 281.672 391.813L469.328 479.187C469.346 479.147 469.305 479.24 469.193 479.41C469.082 479.577 468.966 479.722 468.878 479.82C468.676 480.045 468.881 479.74 469.942 479.053C472.395 477.465 478.007 474.772 488.026 472.708C509.305 468.323 534.67 469.944 549.443 472.938L590.557 270.062ZM281.672 391.813C269.31 418.363 259.979 439.787 248.762 460.612C237.522 481.478 229.241 492.122 224.287 496.703C221.309 499.457 226.686 493.883 236.967 494.293C243.904 494.57 237.084 497.232 213.689 478.017L82.3109 637.982C124.666 672.768 173.659 698.929 228.705 701.128C287.095 703.461 332.878 678.23 364.838 648.672C394.822 620.941 416.009 586.616 431.004 558.778C446.021 530.9 459.69 499.886 469.328 479.187L281.672 391.813ZM213.689 478.017C207.089 472.597 207.814 471.673 208.032 467.707C208.598 457.39 214.561 436.676 234.397 406.166C273.721 345.684 344.152 282.307 402.051 245.009L289.949 70.991C214.348 119.693 120.029 202.316 60.8526 293.334C31.4393 338.573 4.71406 394.985 1.34326 456.355C-2.3764 524.076 23.1606 589.403 82.3109 637.982L213.689 478.017ZM402.051 245.009C426.213 229.444 444.066 219.131 457.908 212.908C472.51 206.343 474.451 208.161 468.504 207.902L477.496 1.09761C437.049 -0.660934 400.694 11.6714 373.022 24.1133C344.591 36.8966 316.194 54.0841 289.949 70.991L402.051 245.009Z" fill="white"/>
</svg>
