<svg width="499" height="656" viewBox="0 0 499 656" fill="none" xmlns="http://www.w3.org/2000/svg">
<path d="M307.206 173.238C363.338 92.3266 319.234 24.033 290.165 0L133.795 162.222C75.6579 210.622 -30.7939 339.666 8.49903 468.643C57.6152 629.864 196.945 662.909 262.099 654.898C327.253 646.887 466.583 608.835 494.649 452.621C517.102 327.649 447.203 243.667 409.447 217.298L319.093 321.298C318.048 322.501 318.148 324.329 319.271 325.46C368.989 375.536 355.476 435.587 342.289 459.63C296.581 530.928 226.348 514.706 196.945 497.682C127.18 451.219 144.487 381.523 161.862 352.483C166.673 330.053 260.762 223.64 307.206 173.238Z" fill="white"/>
</svg>
