<svg width="1264" height="611" viewBox="0 0 1264 611" fill="none" xmlns="http://www.w3.org/2000/svg">
<g id="line-animation">
<rect width="1264" height="611" fill="white"/>
<path id="leaf" d="M307 217C204.6 250.2 171 302.5 167 324.5H326C336.4 282.9 317.667 235.5 307 217Z" fill="#99CC66"/>
<path id="stems" d="M233.5 238L262 313.5M222 332L198 260.5M268.5 266.5L313 214M284.5 332L340.5 266.5" stroke="white" stroke-width="8"/>
<path id="center" d="M273.5 225.5L260 337.5" stroke="white" stroke-width="8"/>
<g id="Schyulkill Center">
<path d="M374.536 325.728C376.744 325.728 377.128 322.368 379.528 322.368C381.832 322.368 387.88 325.344 397.48 325.344C411.688 325.344 421.576 317.952 421.576 305.856C421.576 290.976 408.328 286.56 395.176 282.624C382.792 278.88 375.496 276.672 375.496 269.376C375.496 263.808 380.008 260.256 386.92 260.256C395.848 260.256 403.24 264.288 410.152 271.392C411.4 272.64 412.456 273.696 413.704 273.696C414.664 273.696 415.432 272.832 415.432 271.968C415.432 270.816 414.76 268.992 411.688 263.808L409 259.296C407.08 256.128 406.12 254.304 404.392 254.304C402.184 254.304 402.376 257.088 400.072 257.088C397.96 257.088 393.832 254.688 385.96 254.688C374.536 254.688 366.568 261.984 366.568 271.104C366.568 284.352 380.008 288.288 392.488 292.032C404.68 295.68 412.456 298.464 412.456 307.392C412.456 314.88 406.888 319.776 396.616 319.776C385.192 319.776 376.648 313.632 369.352 305.76C368.584 304.992 367.24 303.456 365.896 303.456C364.936 303.456 363.88 304.32 363.88 305.664C363.88 307.296 364.84 308.544 367.336 313.92L370.984 321.984C372.136 324.384 373 325.728 374.536 325.728Z" fill="#653614"/>
<path d="M450.686 325.728C459.422 325.728 467.006 321.216 469.886 316.128C470.366 315.264 470.75 314.4 470.75 313.632C470.75 312.288 469.982 311.52 468.926 311.52C468.158 311.52 467.486 311.904 466.622 312.96C463.454 316.992 459.134 319.104 454.142 319.104C444.446 319.104 436.67 310.272 436.67 298.08C436.67 287.136 442.238 279.936 449.822 279.936C456.83 279.936 459.23 285.216 460.478 292.128C460.766 293.952 461.438 295.008 462.686 295.008C463.646 295.008 464.318 294.336 465.278 293.28C468.254 289.632 469.214 286.656 469.214 284.832C469.214 280.896 461.246 275.136 451.55 275.136C438.302 275.136 427.454 285.6 427.454 301.056C427.454 316.992 438.206 325.728 450.686 325.728Z" fill="#653614"/>
<path d="M523.152 312.768L520.752 294.816C519.696 286.944 517.008 275.808 505.392 275.808C498.096 275.808 493.104 280.128 490.032 285.12V253.92C490.032 252.576 489.552 251.424 488.208 251.424C487.152 251.424 486.192 251.712 481.296 254.016C476.208 256.416 474.576 257.568 474.576 259.104C474.576 262.848 481.392 259.584 481.392 265.536V313.728C481.392 321.504 475.344 318.72 475.344 322.368C475.344 323.232 476.016 324.288 477.552 324.288C479.664 324.288 482.352 324 485.712 324C489.168 324 492.048 324.288 494.16 324.288C495.6 324.288 496.176 323.232 496.176 322.368C496.176 318.72 490.032 321.504 490.032 313.728V297.504C490.032 287.712 496.272 283.104 502.032 283.104C509.52 283.104 511.344 291.168 512.112 296.064L514.416 312.768C514.512 313.536 514.608 314.496 514.608 315.264C514.608 321.12 508.176 318.816 508.176 322.272C508.176 323.424 509.232 324.288 510.96 324.288C513.552 324.288 515.184 324 519.216 324C523.056 324 524.976 324.288 527.568 324.288C529.008 324.288 530.16 323.712 530.16 322.464C530.16 318.624 524.4 321.792 523.152 312.768Z" fill="#653614"/>
<path d="M578.675 276.48C576.275 276.48 573.971 276.768 571.283 276.768C568.787 276.768 566.195 276.48 564.275 276.48C562.739 276.48 561.779 277.152 561.779 278.496C561.779 281.664 567.635 280.512 567.635 284.448C567.635 285.888 566.963 287.52 566.003 290.112L556.019 314.592L545.555 290.112C544.499 287.616 544.115 285.6 544.115 284.832C544.115 280.416 549.683 281.664 549.683 278.496C549.683 277.152 548.723 276.48 547.187 276.48C545.075 276.48 542.387 276.768 538.739 276.768C534.611 276.768 532.019 276.48 529.523 276.48C528.275 276.48 527.315 277.056 527.315 278.304C527.315 281.28 532.115 280.416 534.611 286.08L551.507 324L550.931 325.44C548.339 331.776 545.267 335.52 542.003 335.52C539.507 335.52 537.299 333.408 534.515 329.088C533.651 327.84 533.171 327.264 532.115 327.264C530.867 327.264 530.099 328.416 530.099 329.856C530.099 332.352 531.731 338.4 533.075 340.224C534.035 341.472 536.723 342.336 539.699 342.336C546.707 342.336 551.987 337.152 555.731 328.224L573.683 285.888C575.987 280.416 580.979 281.28 580.979 278.304C580.979 277.152 580.019 276.48 578.675 276.48Z" fill="#653614"/>
<path d="M630.855 311.616V279.552C630.855 277.824 630.567 276.096 628.839 276.096C628.071 276.096 626.439 276.384 621.831 278.016C615.495 280.32 613.767 281.28 613.767 282.912C613.767 286.56 622.215 284.16 622.215 289.92V303.552C622.215 313.248 615.495 318.144 608.871 318.144C600.711 318.144 598.599 312.864 598.599 305.184V279.552C598.599 278.016 598.407 276.096 596.391 276.096C595.719 276.096 594.471 276.288 589.575 278.112C583.911 280.224 582.279 281.184 582.279 282.912C582.279 286.368 589.959 284.16 589.959 289.92V306.528C589.959 317.856 595.143 325.152 605.991 325.152C614.247 325.152 619.143 320.928 622.215 315.936V321.504C622.215 323.04 622.503 324.768 624.231 324.768C625.191 324.768 626.727 324.48 630.951 323.424C636.999 321.984 638.727 321.024 638.727 319.2C638.727 316.032 630.855 317.472 630.855 311.616Z" fill="#653614"/>
<path d="M645.365 324.288C647.477 324.288 650.165 324 653.525 324C656.981 324 659.861 324.288 661.973 324.288C663.413 324.288 663.989 323.232 663.989 322.368C663.989 318.72 657.845 321.504 657.845 313.728V254.784C657.845 252.672 657.365 251.424 655.829 251.424C654.965 251.424 654.005 251.712 649.109 254.016C644.021 256.416 642.389 257.568 642.389 259.104C642.389 262.848 649.205 259.584 649.205 265.536V313.728C649.205 321.504 643.157 318.72 643.157 322.368C643.157 323.232 643.829 324.288 645.365 324.288Z" fill="#653614"/>
<path d="M717.121 317.184L700.897 292.608L711.073 284.064C715.105 280.608 720.385 281.376 720.385 278.4C720.385 277.152 719.425 276.48 718.081 276.48C715.681 276.48 711.745 276.768 709.153 276.768C706.561 276.768 703.489 276.48 701.473 276.48C699.937 276.48 698.977 277.056 698.977 278.496C698.977 281.28 703.297 280.128 703.297 282.624C703.297 283.968 702.049 284.928 700.609 286.272L684.001 300.672V253.92C684.001 252.576 683.521 251.424 682.177 251.424C681.121 251.424 680.161 251.712 675.265 254.016C670.177 256.416 668.545 257.568 668.545 259.104C668.545 262.848 675.361 259.584 675.361 265.536V313.728C675.361 321.504 669.313 318.72 669.313 322.368C669.313 323.232 669.985 324.288 671.521 324.288C673.633 324.288 676.321 324 679.681 324C683.137 324 686.017 324.288 688.129 324.288C689.569 324.288 690.145 323.232 690.145 322.368C690.145 318.72 684.001 321.504 684.001 313.728V306.72L694.657 297.792L705.121 314.112C705.889 315.36 706.369 316.224 706.369 317.184C706.369 320.64 701.569 319.296 701.569 322.368C701.569 323.712 702.529 324.288 704.065 324.288C706.177 324.288 708.577 324 712.225 324C716.257 324 718.849 324.288 721.345 324.288C722.689 324.288 723.649 323.712 723.649 322.464C723.649 319.776 719.425 320.64 717.121 317.184Z" fill="#653614"/>
<path d="M734.109 265.824C738.909 265.824 742.845 261.792 742.845 258.144C742.845 255.072 740.349 253.248 737.469 253.248C732.669 253.248 729.021 257.28 729.021 260.928C729.021 264.096 731.517 265.824 734.109 265.824ZM728.733 324.288C730.749 324.288 733.437 324 736.797 324C740.253 324 743.133 324.288 745.245 324.288C746.685 324.288 747.357 323.232 747.357 322.368C747.357 318.72 741.117 321.504 741.117 313.728V279.456C741.117 277.344 740.637 276.096 739.101 276.096C738.333 276.096 737.277 276.384 732.381 278.784C727.389 281.184 725.661 282.24 725.661 283.776C725.661 287.52 732.477 284.256 732.477 290.208V313.728C732.477 321.504 726.429 318.72 726.429 322.368C726.429 323.232 727.101 324.288 728.733 324.288Z" fill="#653614"/>
<path d="M754.771 324.288C756.883 324.288 759.571 324 762.931 324C766.387 324 769.267 324.288 771.379 324.288C772.819 324.288 773.395 323.232 773.395 322.368C773.395 318.72 767.251 321.504 767.251 313.728V254.784C767.251 252.672 766.771 251.424 765.235 251.424C764.371 251.424 763.411 251.712 758.515 254.016C753.427 256.416 751.795 257.568 751.795 259.104C751.795 262.848 758.611 259.584 758.611 265.536V313.728C758.611 321.504 752.563 318.72 752.563 322.368C752.563 323.232 753.235 324.288 754.771 324.288Z" fill="#653614"/>
<path d="M780.927 324.288C783.039 324.288 785.727 324 789.087 324C792.543 324 795.423 324.288 797.535 324.288C798.975 324.288 799.551 323.232 799.551 322.368C799.551 318.72 793.407 321.504 793.407 313.728V254.784C793.407 252.672 792.927 251.424 791.391 251.424C790.527 251.424 789.567 251.712 784.671 254.016C779.583 256.416 777.951 257.568 777.951 259.104C777.951 262.848 784.767 259.584 784.767 265.536V313.728C784.767 321.504 778.719 318.72 778.719 322.368C778.719 323.232 779.391 324.288 780.927 324.288Z" fill="#653614"/>
<path d="M862.192 325.824C876.016 325.824 885.808 317.664 889.264 311.424C889.936 310.176 890.32 309.024 890.32 308.16C890.32 306.624 889.168 305.664 888.016 305.664C886.576 305.664 885.808 306.72 885.232 307.488C880.336 314.592 873.136 318.528 864.88 318.528C850.384 318.528 840.4 306.432 840.4 289.44C840.4 272.736 850.288 260.256 863.248 260.256C870.736 260.256 876.88 264.864 883.984 273.984C885.232 275.52 886.096 276.288 887.152 276.288C888.112 276.288 889.36 275.52 889.36 273.984C889.36 272.352 888.496 271.104 886.672 266.688L883.696 259.104C882.16 255.456 881.296 254.208 879.76 254.208C877.744 254.208 877.744 256.8 875.728 256.8C873.712 256.8 868.624 254.496 861.904 254.496C844.528 254.496 829.936 269.856 829.936 291.36C829.936 313.248 845.392 325.824 862.192 325.824Z" fill="#653614"/>
<path d="M939.404 311.808C938.636 311.808 937.868 312.288 936.908 313.248C933.836 316.704 929.036 319.2 923.372 319.2C915.404 319.2 909.164 313.632 906.572 305.76L937.388 296.544C938.828 296.064 939.404 295.488 939.404 293.472C939.404 284.064 931.532 275.04 919.724 275.04C907.148 275.04 896.108 285.504 896.108 300.576C896.108 316.608 907.148 325.728 920.204 325.728C928.556 325.728 936.908 321.408 940.46 316.32C941.036 315.36 941.324 314.592 941.324 314.016C941.324 312.768 940.46 311.808 939.404 311.808ZM918.476 280.608C925.292 280.608 929.804 286.56 929.804 291.36C929.804 292.992 929.324 293.472 927.596 293.952L905.42 300.864C905.228 299.616 905.132 298.368 905.132 297.024C905.132 287.136 910.892 280.608 918.476 280.608Z" fill="#653614"/>
<path d="M995.302 312.768L992.806 294.816C991.75 286.944 988.966 275.808 977.542 275.808C970.15 275.808 965.158 280.128 962.086 285.12V279.456C962.086 277.344 961.606 276.096 960.07 276.096C959.302 276.096 958.246 276.384 953.35 278.784C948.358 281.184 946.63 282.24 946.63 283.776C946.63 287.52 953.446 284.256 953.446 290.208V313.728C953.446 321.504 947.398 318.72 947.398 322.368C947.398 323.232 948.07 324.288 949.702 324.288C951.718 324.288 954.406 324 957.766 324C961.222 324 964.102 324.288 966.214 324.288C967.654 324.288 968.326 323.232 968.326 322.368C968.326 318.72 962.086 321.504 962.086 313.728V297.504C962.086 287.712 968.326 283.104 974.086 283.104C981.67 283.104 983.398 291.168 984.166 296.064L986.47 312.288C986.566 313.248 986.758 314.4 986.758 315.168C986.758 321.12 980.326 318.816 980.326 322.272C980.326 323.424 981.286 324.288 983.014 324.288C985.606 324.288 987.334 324 991.27 324C995.11 324 997.126 324.288 999.622 324.288C1001.16 324.288 1002.31 323.712 1002.31 322.368C1002.31 318.624 996.454 321.792 995.302 312.768Z" fill="#653614"/>
<path d="M1037.48 313.824C1036.62 313.824 1035.75 314.496 1035.18 315.072C1033.26 316.704 1031.05 319.008 1027.11 319.008C1023.18 319.008 1020.39 316.896 1020.39 309.792V281.952H1036.43C1037.39 281.952 1037.96 281.472 1038.15 280.416C1038.25 279.84 1038.44 278.88 1038.44 278.208C1038.44 277.344 1037.87 276.864 1036.81 276.864H1020.39V261.312C1020.39 259.584 1019.72 258.816 1018.67 258.816C1017.23 258.816 1016.65 259.968 1015.79 262.464C1013.58 271.2 1010.99 274.656 1005.23 277.056C1003.69 277.728 1002.73 278.496 1002.73 279.744C1002.73 281.184 1003.79 281.952 1005.51 281.952H1011.75V300C1011.75 306.624 1011.56 314.016 1011.56 316.032C1011.56 320.928 1016.75 325.056 1024.14 325.056C1029.32 325.056 1034.03 323.328 1037.48 319.68C1038.73 318.336 1039.4 317.088 1039.4 315.936C1039.4 314.784 1038.63 313.824 1037.48 313.824Z" fill="#653614"/>
<path d="M1086.03 311.808C1085.26 311.808 1084.49 312.288 1083.53 313.248C1080.46 316.704 1075.66 319.2 1070 319.2C1062.03 319.2 1055.79 313.632 1053.2 305.76L1084.01 296.544C1085.45 296.064 1086.03 295.488 1086.03 293.472C1086.03 284.064 1078.16 275.04 1066.35 275.04C1053.77 275.04 1042.73 285.504 1042.73 300.576C1042.73 316.608 1053.77 325.728 1066.83 325.728C1075.18 325.728 1083.53 321.408 1087.08 316.32C1087.66 315.36 1087.95 314.592 1087.95 314.016C1087.95 312.768 1087.08 311.808 1086.03 311.808ZM1065.1 280.608C1071.92 280.608 1076.43 286.56 1076.43 291.36C1076.43 292.992 1075.95 293.472 1074.22 293.952L1052.04 300.864C1051.85 299.616 1051.76 298.368 1051.76 297.024C1051.76 287.136 1057.52 280.608 1065.1 280.608Z" fill="#653614"/>
<path d="M1125.7 275.712C1118.89 275.712 1111.88 281.184 1108.71 289.344V279.456C1108.71 277.344 1108.23 276.096 1106.7 276.096C1105.93 276.096 1104.87 276.384 1099.97 278.784C1094.98 281.184 1093.26 282.24 1093.26 283.776C1093.26 287.52 1100.07 284.256 1100.07 290.208V313.728C1100.07 321.504 1094.02 318.72 1094.02 322.368C1094.02 323.232 1094.7 324.288 1096.33 324.288C1098.34 324.288 1101.03 324 1104.39 324C1108.33 324 1111.69 324.288 1114.09 324.288C1115.53 324.288 1116.2 323.232 1116.2 322.368C1116.2 318.432 1108.71 321.504 1108.71 313.728V304.608C1108.71 291.168 1116.68 283.776 1121.29 283.776C1123.3 283.776 1124.55 285.216 1125.8 288.192C1126.38 289.728 1126.95 290.784 1128.2 290.784C1129.54 290.784 1130.31 289.824 1130.79 288.192C1131.94 283.968 1132.52 281.568 1132.52 280.128C1132.52 277.728 1129.74 275.712 1125.7 275.712Z" fill="#653614"/>
</g>
<rect id="clippath" x="146" y="325" width="215" height="94" fill="white"/>
</g>
</svg>
