<svg width="1728" height="1117" viewBox="0 0 1728 1117" fill="none" xmlns="http://www.w3.org/2000/svg">
<g id="MacBook Pro 16&#34; - 13">
<rect width="1728" height="1117" fill="white"/>
<path id="leaf" d="M383.032 414C234.529 462.179 185.801 538.074 180 570H410.586C425.669 509.632 398.501 440.847 383.032 414Z" fill="#145028"/>
<path id="center" d="M347.436 414.212C347.83 412.039 346.386 409.957 344.212 409.564C342.039 409.17 339.957 410.614 339.564 412.788L347.436 414.212ZM316.936 582.712L347.436 414.212L339.564 412.788L309.064 581.288L316.936 582.712Z" fill="white"/>
<path id="bottomstems" d="M231.719 487.527C230.905 485.473 228.581 484.468 226.527 485.281C224.473 486.095 223.468 488.419 224.281 490.473L231.719 487.527ZM420.426 511.227C421.932 509.611 421.843 507.08 420.227 505.574C418.611 504.068 416.08 504.157 414.574 505.773L420.426 511.227ZM266.582 575.527L231.719 487.527L224.281 490.473L259.144 578.473L266.582 575.527ZM356.579 579.727L420.426 511.227L414.574 505.773L350.727 574.273L356.579 579.727Z" fill="white"/>
<path id="topstems" d="M283 454.5L319 545M332.5 478.5L391.5 410" stroke="white" stroke-width="8" stroke-linecap="round"/>
<g id="Schuylkill Center">
<path d="M473.022 572.556C476.288 572.556 476.856 567.586 480.406 567.586C483.814 567.586 492.76 571.988 506.96 571.988C527.976 571.988 542.602 561.054 542.602 543.162C542.602 521.152 523.006 514.62 503.552 508.798C485.234 503.26 474.442 499.994 474.442 489.202C474.442 480.966 481.116 475.712 491.34 475.712C504.546 475.712 515.48 481.676 525.704 492.184C527.55 494.03 529.112 495.592 530.958 495.592C532.378 495.592 533.514 494.314 533.514 493.036C533.514 491.332 532.52 488.634 527.976 480.966L524 474.292C521.16 469.606 519.74 466.908 517.184 466.908C513.918 466.908 514.202 471.026 510.794 471.026C507.67 471.026 501.564 467.476 489.92 467.476C473.022 467.476 461.236 478.268 461.236 491.758C461.236 511.354 481.116 517.176 499.576 522.714C517.61 528.11 529.112 532.228 529.112 545.434C529.112 556.51 520.876 563.752 505.682 563.752C488.784 563.752 476.146 554.664 465.354 543.02C464.218 541.884 462.23 539.612 460.242 539.612C458.822 539.612 457.26 540.89 457.26 542.878C457.26 545.292 458.68 547.138 462.372 555.09L467.768 567.018C469.472 570.568 470.75 572.556 473.022 572.556Z" fill="#F69122"/>
<path d="M585.66 572.556C598.582 572.556 609.8 565.882 614.06 558.356C614.77 557.078 615.338 555.8 615.338 554.664C615.338 552.676 614.202 551.54 612.64 551.54C611.504 551.54 610.51 552.108 609.232 553.67C604.546 559.634 598.156 562.758 590.772 562.758C576.43 562.758 564.928 549.694 564.928 531.66C564.928 515.472 573.164 504.822 584.382 504.822C594.748 504.822 598.298 512.632 600.144 522.856C600.57 525.554 601.564 527.116 603.41 527.116C604.83 527.116 605.824 526.122 607.244 524.56C611.646 519.164 613.066 514.762 613.066 512.064C613.066 506.242 601.28 497.722 586.938 497.722C567.342 497.722 551.296 513.2 551.296 536.062C551.296 559.634 567.2 572.556 585.66 572.556Z" fill="#F69122"/>
<path d="M692.85 553.386L689.3 526.832C687.738 515.188 683.762 498.716 666.58 498.716C655.788 498.716 648.404 505.106 643.86 512.49V466.34C643.86 464.352 643.15 462.648 641.162 462.648C639.6 462.648 638.18 463.074 630.938 466.482C623.412 470.032 620.998 471.736 620.998 474.008C620.998 479.546 631.08 474.718 631.08 483.522V554.806C631.08 566.308 622.134 562.19 622.134 567.586C622.134 568.864 623.128 570.426 625.4 570.426C628.524 570.426 632.5 570 637.47 570C642.582 570 646.842 570.426 649.966 570.426C652.096 570.426 652.948 568.864 652.948 567.586C652.948 562.19 643.86 566.308 643.86 554.806V530.808C643.86 516.324 653.09 509.508 661.61 509.508C672.686 509.508 675.384 521.436 676.52 528.678L679.928 553.386C680.07 554.522 680.212 555.942 680.212 557.078C680.212 565.74 670.698 562.332 670.698 567.444C670.698 569.148 672.26 570.426 674.816 570.426C678.65 570.426 681.064 570 687.028 570C692.708 570 695.548 570.426 699.382 570.426C701.512 570.426 703.216 569.574 703.216 567.728C703.216 562.048 694.696 566.734 692.85 553.386Z" fill="#F69122"/>
<path d="M776.168 551.682V504.254C776.168 501.698 775.742 499.142 773.186 499.142C772.05 499.142 769.636 499.568 762.82 501.982C753.448 505.39 750.892 506.81 750.892 509.224C750.892 514.62 763.388 511.07 763.388 519.59V539.754C763.388 554.096 753.448 561.338 743.65 561.338C731.58 561.338 728.456 553.528 728.456 542.168V504.254C728.456 501.982 728.172 499.142 725.19 499.142C724.196 499.142 722.35 499.426 715.108 502.124C706.73 505.248 704.316 506.668 704.316 509.224C704.316 514.336 715.676 511.07 715.676 519.59V544.156C715.676 560.912 723.344 571.704 739.39 571.704C751.602 571.704 758.844 565.456 763.388 558.072V566.308C763.388 568.58 763.814 571.136 766.37 571.136C767.79 571.136 770.062 570.71 776.31 569.148C785.256 567.018 787.812 565.598 787.812 562.9C787.812 558.214 776.168 560.344 776.168 551.682Z" fill="#F69122"/>
<path d="M864.282 499.71C860.732 499.71 857.324 500.136 853.348 500.136C849.656 500.136 845.822 499.71 842.982 499.71C840.71 499.71 839.29 500.704 839.29 502.692C839.29 507.378 847.952 505.674 847.952 511.496C847.952 513.626 846.958 516.04 845.538 519.874L830.77 556.084L815.292 519.874C813.73 516.182 813.162 513.2 813.162 512.064C813.162 505.532 821.398 507.378 821.398 502.692C821.398 500.704 819.978 499.71 817.706 499.71C814.582 499.71 810.606 500.136 805.21 500.136C799.104 500.136 795.27 499.71 791.578 499.71C789.732 499.71 788.312 500.562 788.312 502.408C788.312 506.81 795.412 505.532 799.104 513.91L824.096 570L823.244 572.13C819.41 581.502 814.866 587.04 810.038 587.04C806.346 587.04 803.08 583.916 798.962 577.526C797.684 575.68 796.974 574.828 795.412 574.828C793.566 574.828 792.43 576.532 792.43 578.662C792.43 582.354 794.844 591.3 796.832 593.998C798.252 595.844 802.228 597.122 806.63 597.122C816.996 597.122 824.806 589.454 830.344 576.248L856.898 513.626C860.306 505.532 867.69 506.81 867.69 502.408C867.69 500.704 866.27 499.71 864.282 499.71Z" fill="#F69122"/>
<path d="M873.9 570.426C877.024 570.426 881 570 885.97 570C891.082 570 895.342 570.426 898.466 570.426C900.596 570.426 901.448 568.864 901.448 567.586C901.448 562.19 892.36 566.308 892.36 554.806V467.618C892.36 464.494 891.65 462.648 889.378 462.648C888.1 462.648 886.68 463.074 879.438 466.482C871.912 470.032 869.498 471.736 869.498 474.008C869.498 479.546 879.58 474.718 879.58 483.522V554.806C879.58 566.308 870.634 562.19 870.634 567.586C870.634 568.864 871.628 570.426 873.9 570.426Z" fill="#F69122"/>
<path d="M980.039 559.918L956.041 523.566L971.093 510.928C977.057 505.816 984.867 506.952 984.867 502.55C984.867 500.704 983.447 499.71 981.459 499.71C977.909 499.71 972.087 500.136 968.253 500.136C964.419 500.136 959.875 499.71 956.893 499.71C954.621 499.71 953.201 500.562 953.201 502.692C953.201 506.81 959.591 505.106 959.591 508.798C959.591 510.786 957.745 512.206 955.615 514.194L931.049 535.494V466.34C931.049 464.352 930.339 462.648 928.351 462.648C926.789 462.648 925.369 463.074 918.127 466.482C910.601 470.032 908.187 471.736 908.187 474.008C908.187 479.546 918.269 474.718 918.269 483.522V554.806C918.269 566.308 909.323 562.19 909.323 567.586C909.323 568.864 910.317 570.426 912.589 570.426C915.713 570.426 919.689 570 924.659 570C929.771 570 934.031 570.426 937.155 570.426C939.285 570.426 940.137 568.864 940.137 567.586C940.137 562.19 931.049 566.308 931.049 554.806V544.44L946.811 531.234L962.289 555.374C963.425 557.22 964.135 558.498 964.135 559.918C964.135 565.03 957.035 563.042 957.035 567.586C957.035 569.574 958.455 570.426 960.727 570.426C963.851 570.426 967.401 570 972.797 570C978.761 570 982.595 570.426 986.287 570.426C988.275 570.426 989.695 569.574 989.695 567.728C989.695 563.752 983.447 565.03 980.039 559.918Z" fill="#F69122"/>
<path d="M1005.17 483.948C1012.27 483.948 1018.09 477.984 1018.09 472.588C1018.09 468.044 1014.4 465.346 1010.14 465.346C1003.04 465.346 997.642 471.31 997.642 476.706C997.642 481.392 1001.33 483.948 1005.17 483.948ZM997.216 570.426C1000.2 570.426 1004.17 570 1009.14 570C1014.26 570 1018.52 570.426 1021.64 570.426C1023.77 570.426 1024.76 568.864 1024.76 567.586C1024.76 562.19 1015.53 566.308 1015.53 554.806V504.112C1015.53 500.988 1014.82 499.142 1012.55 499.142C1011.42 499.142 1009.85 499.568 1002.61 503.118C995.228 506.668 992.672 508.23 992.672 510.502C992.672 516.04 1002.75 511.212 1002.75 520.016V554.806C1002.75 566.308 993.808 562.19 993.808 567.586C993.808 568.864 994.802 570.426 997.216 570.426Z" fill="#F69122"/>
<path d="M1035.73 570.426C1038.85 570.426 1042.83 570 1047.8 570C1052.91 570 1057.17 570.426 1060.3 570.426C1062.43 570.426 1063.28 568.864 1063.28 567.586C1063.28 562.19 1054.19 566.308 1054.19 554.806V467.618C1054.19 464.494 1053.48 462.648 1051.21 462.648C1049.93 462.648 1048.51 463.074 1041.27 466.482C1033.74 470.032 1031.33 471.736 1031.33 474.008C1031.33 479.546 1041.41 474.718 1041.41 483.522V554.806C1041.41 566.308 1032.46 562.19 1032.46 567.586C1032.46 568.864 1033.46 570.426 1035.73 570.426Z" fill="#F69122"/>
<path d="M1074.42 570.426C1077.54 570.426 1081.52 570 1086.49 570C1091.6 570 1095.86 570.426 1098.99 570.426C1101.12 570.426 1101.97 568.864 1101.97 567.586C1101.97 562.19 1092.88 566.308 1092.88 554.806V467.618C1092.88 464.494 1092.17 462.648 1089.9 462.648C1088.62 462.648 1087.2 463.074 1079.96 466.482C1072.43 470.032 1070.02 471.736 1070.02 474.008C1070.02 479.546 1080.1 474.718 1080.1 483.522V554.806C1080.1 566.308 1071.15 562.19 1071.15 567.586C1071.15 568.864 1072.15 570.426 1074.42 570.426Z" fill="#F69122"/>
<path d="M1194.62 572.698C1215.07 572.698 1229.56 560.628 1234.67 551.398C1235.66 549.552 1236.23 547.848 1236.23 546.57C1236.23 544.298 1234.53 542.878 1232.82 542.878C1230.69 542.878 1229.56 544.44 1228.7 545.576C1221.46 556.084 1210.81 561.906 1198.6 561.906C1177.16 561.906 1162.39 544.014 1162.39 518.88C1162.39 494.172 1177.02 475.712 1196.19 475.712C1207.26 475.712 1216.35 482.528 1226.86 496.018C1228.7 498.29 1229.98 499.426 1231.54 499.426C1232.96 499.426 1234.81 498.29 1234.81 496.018C1234.81 493.604 1233.53 491.758 1230.83 485.226L1226.43 474.008C1224.16 468.612 1222.88 466.766 1220.61 466.766C1217.63 466.766 1217.63 470.6 1214.65 470.6C1211.66 470.6 1204.14 467.192 1194.2 467.192C1168.5 467.192 1146.91 489.912 1146.91 521.72C1146.91 554.096 1169.77 572.698 1194.62 572.698Z" fill="#F69122"/>
<path d="M1308.83 551.966C1307.7 551.966 1306.56 552.676 1305.14 554.096C1300.6 559.208 1293.5 562.9 1285.12 562.9C1273.33 562.9 1264.1 554.664 1260.27 543.02L1305.85 529.388C1307.98 528.678 1308.83 527.826 1308.83 524.844C1308.83 510.928 1297.19 497.58 1279.72 497.58C1261.12 497.58 1244.79 513.058 1244.79 535.352C1244.79 559.066 1261.12 572.556 1280.43 572.556C1292.79 572.556 1305.14 566.166 1310.39 558.64C1311.25 557.22 1311.67 556.084 1311.67 555.232C1311.67 553.386 1310.39 551.966 1308.83 551.966ZM1277.88 505.816C1287.96 505.816 1294.63 514.62 1294.63 521.72C1294.63 524.134 1293.92 524.844 1291.37 525.554L1258.56 535.778C1258.28 533.932 1258.14 532.086 1258.14 530.098C1258.14 515.472 1266.66 505.816 1277.88 505.816Z" fill="#F69122"/>
<path d="M1391.52 553.386L1387.82 526.832C1386.26 515.188 1382.14 498.716 1365.25 498.716C1354.31 498.716 1346.93 505.106 1342.38 512.49V504.112C1342.38 500.988 1341.67 499.142 1339.4 499.142C1338.27 499.142 1336.7 499.568 1329.46 503.118C1322.08 506.668 1319.52 508.23 1319.52 510.502C1319.52 516.04 1329.6 511.212 1329.6 520.016V554.806C1329.6 566.308 1320.66 562.19 1320.66 567.586C1320.66 568.864 1321.65 570.426 1324.07 570.426C1327.05 570.426 1331.02 570 1335.99 570C1341.11 570 1345.37 570.426 1348.49 570.426C1350.62 570.426 1351.61 568.864 1351.61 567.586C1351.61 562.19 1342.38 566.308 1342.38 554.806V530.808C1342.38 516.324 1351.61 509.508 1360.13 509.508C1371.35 509.508 1373.91 521.436 1375.04 528.678L1378.45 552.676C1378.59 554.096 1378.88 555.8 1378.88 556.936C1378.88 565.74 1369.36 562.332 1369.36 567.444C1369.36 569.148 1370.78 570.426 1373.34 570.426C1377.17 570.426 1379.73 570 1385.55 570C1391.23 570 1394.21 570.426 1397.91 570.426C1400.18 570.426 1401.88 569.574 1401.88 567.586C1401.88 562.048 1393.22 566.734 1391.52 553.386Z" fill="#F69122"/>
<path d="M1453.91 554.948C1452.63 554.948 1451.35 555.942 1450.5 556.794C1447.66 559.208 1444.39 562.616 1438.57 562.616C1432.75 562.616 1428.63 559.492 1428.63 548.984V507.804H1452.34C1453.76 507.804 1454.62 507.094 1454.9 505.532C1455.04 504.68 1455.33 503.26 1455.33 502.266C1455.33 500.988 1454.47 500.278 1452.91 500.278H1428.63V477.274C1428.63 474.718 1427.64 473.582 1426.07 473.582C1423.94 473.582 1423.09 475.286 1421.81 478.978C1418.55 491.9 1414.71 497.012 1406.19 500.562C1403.92 501.556 1402.5 502.692 1402.5 504.538C1402.5 506.668 1404.06 507.804 1406.62 507.804H1415.85V534.5C1415.85 544.298 1415.57 555.232 1415.57 558.214C1415.57 565.456 1423.23 571.562 1434.17 571.562C1441.84 571.562 1448.79 569.006 1453.91 563.61C1455.75 561.622 1456.75 559.776 1456.75 558.072C1456.75 556.368 1455.61 554.948 1453.91 554.948Z" fill="#F69122"/>
<path d="M1525.72 551.966C1524.58 551.966 1523.44 552.676 1522.02 554.096C1517.48 559.208 1510.38 562.9 1502 562.9C1490.22 562.9 1480.99 554.664 1477.15 543.02L1522.73 529.388C1524.86 528.678 1525.72 527.826 1525.72 524.844C1525.72 510.928 1514.07 497.58 1496.61 497.58C1478 497.58 1461.67 513.058 1461.67 535.352C1461.67 559.066 1478 572.556 1497.32 572.556C1509.67 572.556 1522.02 566.166 1527.28 558.64C1528.13 557.22 1528.56 556.084 1528.56 555.232C1528.56 553.386 1527.28 551.966 1525.72 551.966ZM1494.76 505.816C1504.84 505.816 1511.52 514.62 1511.52 521.72C1511.52 524.134 1510.81 524.844 1508.25 525.554L1475.45 535.778C1475.16 533.932 1475.02 532.086 1475.02 530.098C1475.02 515.472 1483.54 505.816 1494.76 505.816Z" fill="#F69122"/>
<path d="M1584.4 498.574C1574.32 498.574 1563.95 506.668 1559.27 518.738V504.112C1559.27 500.988 1558.56 499.142 1556.28 499.142C1555.15 499.142 1553.59 499.568 1546.34 503.118C1538.96 506.668 1536.4 508.23 1536.4 510.502C1536.4 516.04 1546.49 511.212 1546.49 520.016V554.806C1546.49 566.308 1537.54 562.19 1537.54 567.586C1537.54 568.864 1538.53 570.426 1540.95 570.426C1543.93 570.426 1547.91 570 1552.88 570C1558.7 570 1563.67 570.426 1567.22 570.426C1569.35 570.426 1570.34 568.864 1570.34 567.586C1570.34 561.764 1559.27 566.308 1559.27 554.806V541.316C1559.27 521.436 1571.05 510.502 1577.87 510.502C1580.85 510.502 1582.7 512.632 1584.54 517.034C1585.39 519.306 1586.25 520.868 1588.09 520.868C1590.08 520.868 1591.22 519.448 1591.93 517.034C1593.63 510.786 1594.48 507.236 1594.48 505.106C1594.48 501.556 1590.36 498.574 1584.4 498.574Z" fill="#F69122"/>
</g>
<path id="Vector 2" d="M441 523H1614" stroke="#F69122" stroke-width="5"/>
<path id="Vector 5" d="M311.5 583L343.5 414.5" stroke="black" stroke-width="5"/>
<path id="Vector 6" d="M262.5 579L226 486" stroke="black" stroke-width="5"/>
<path id="Vector 7" d="M355.5 578L428 497" stroke="black" stroke-width="5"/>
<path id="path" d="M233 22.5C265.667 81.1667 352.3 190.9 437.5 160.5C413.667 209.333 339.4 296.8 233 256C270 295.167 362.7 372.2 437.5 367C416.167 404 341 474.9 211 462.5C216.833 493.667 245.4 558.2 313 567" stroke="black"/>
</g>
</svg>
