<svg width="1264" height="611" viewBox="0 0 1264 611" fill="none" xmlns="http://www.w3.org/2000/svg">
<g id="UI-animation" clip-path="url(#clip0_33_2)">
<rect width="1264" height="611" fill="white"/>
<rect id="loading bar" x="342" y="386" width="1248" height="16" fill="#D9D9D9"/>
<path id="your page is oading." d="M250.969 176.141H261.844L281.625 209.234L301.406 176.141H312.328L286.312 217.25V245H276.984V217.25L250.969 176.141ZM350.062 174.266C362.219 174.266 371.219 178.172 377.062 185.984C381.625 192.078 383.906 199.875 383.906 209.375C383.906 219.656 381.297 228.203 376.078 235.016C369.953 243.016 361.219 247.016 349.875 247.016C339.281 247.016 330.953 243.516 324.891 236.516C319.484 229.766 316.781 221.234 316.781 210.922C316.781 201.609 319.094 193.641 323.719 187.016C329.656 178.516 338.438 174.266 350.062 174.266ZM351 238.672C359.219 238.672 365.156 235.734 368.812 229.859C372.5 223.953 374.344 217.172 374.344 209.516C374.344 201.422 372.219 194.906 367.969 189.969C363.75 185.031 357.969 182.562 350.625 182.562C343.5 182.562 337.688 185.016 333.188 189.922C328.688 194.797 326.438 202 326.438 211.531C326.438 219.156 328.359 225.594 332.203 230.844C336.078 236.062 342.344 238.672 351 238.672ZM405.188 176.141V218.703C405.188 223.703 406.125 227.859 408 231.172C410.781 236.172 415.469 238.672 422.062 238.672C429.969 238.672 435.344 235.969 438.188 230.562C439.719 227.625 440.484 223.672 440.484 218.703V176.141H449.953V214.812C449.953 223.281 448.812 229.797 446.531 234.359C442.344 242.672 434.438 246.828 422.812 246.828C411.188 246.828 403.297 242.672 399.141 234.359C396.859 229.797 395.719 223.281 395.719 214.812V176.141H405.188ZM496.453 207.688C500.828 207.688 504.281 206.812 506.812 205.062C509.375 203.312 510.656 200.156 510.656 195.594C510.656 190.688 508.875 187.344 505.312 185.562C503.406 184.625 500.859 184.156 497.672 184.156H474.891V207.688H496.453ZM465.562 176.141H497.438C502.688 176.141 507.016 176.906 510.422 178.438C516.891 181.375 520.125 186.797 520.125 194.703C520.125 198.828 519.266 202.203 517.547 204.828C515.859 207.453 513.484 209.562 510.422 211.156C513.109 212.25 515.125 213.688 516.469 215.469C517.844 217.25 518.609 220.141 518.766 224.141L519.094 233.375C519.188 236 519.406 237.953 519.75 239.234C520.312 241.422 521.312 242.828 522.75 243.453V245H511.312C511 244.406 510.75 243.641 510.562 242.703C510.375 241.766 510.219 239.953 510.094 237.266L509.531 225.781C509.312 221.281 507.641 218.266 504.516 216.734C502.734 215.891 499.938 215.469 496.125 215.469H474.891V245H465.562V176.141ZM561.422 176.141H592.406C598.531 176.141 603.469 177.875 607.219 181.344C610.969 184.781 612.844 189.625 612.844 195.875C612.844 201.25 611.172 205.938 607.828 209.938C604.484 213.906 599.344 215.891 592.406 215.891H570.75V245H561.422V176.141ZM603.422 195.922C603.422 190.859 601.547 187.422 597.797 185.609C595.734 184.641 592.906 184.156 589.312 184.156H570.75V208.016H589.312C593.5 208.016 596.891 207.125 599.484 205.344C602.109 203.562 603.422 200.422 603.422 195.922ZM652.781 216.781L642.328 186.359L631.219 216.781H652.781ZM637.453 176.141H648L672.984 245H662.766L655.781 224.375H628.547L621.094 245H611.531L637.453 176.141ZM711.234 174.359C717.703 174.359 723.297 175.609 728.016 178.109C734.859 181.703 739.047 188 740.578 197H731.344C730.219 191.969 727.891 188.312 724.359 186.031C720.828 183.719 716.375 182.562 711 182.562C704.625 182.562 699.25 184.953 694.875 189.734C690.531 194.516 688.359 201.641 688.359 211.109C688.359 219.297 690.156 225.969 693.75 231.125C697.344 236.25 703.203 238.812 711.328 238.812C717.547 238.812 722.688 237.016 726.75 233.422C730.844 229.797 732.938 223.953 733.031 215.891H711.469V208.156H741.703V245H735.703L733.453 236.141C730.297 239.609 727.5 242.016 725.062 243.359C720.969 245.672 715.766 246.828 709.453 246.828C701.297 246.828 694.281 244.188 688.406 238.906C682 232.281 678.797 223.188 678.797 211.625C678.797 200.094 681.922 190.922 688.172 184.109C694.109 177.609 701.797 174.359 711.234 174.359ZM757.078 176.141H807.281V184.578H766.172V205.484H804.188V213.453H766.172V236.797H807.984V245H757.078V176.141ZM849.047 176.141H858.469V245H849.047V176.141ZM879.75 222.781C879.969 226.688 880.891 229.859 882.516 232.297C885.609 236.859 891.062 239.141 898.875 239.141C902.375 239.141 905.562 238.641 908.438 237.641C914 235.703 916.781 232.234 916.781 227.234C916.781 223.484 915.609 220.812 913.266 219.219C910.891 217.656 907.172 216.297 902.109 215.141L892.781 213.031C886.688 211.656 882.375 210.141 879.844 208.484C875.469 205.609 873.281 201.312 873.281 195.594C873.281 189.406 875.422 184.328 879.703 180.359C883.984 176.391 890.047 174.406 897.891 174.406C905.109 174.406 911.234 176.156 916.266 179.656C921.328 183.125 923.859 188.688 923.859 196.344H915.094C914.625 192.656 913.625 189.828 912.094 187.859C909.25 184.266 904.422 182.469 897.609 182.469C892.109 182.469 888.156 183.625 885.75 185.938C883.344 188.25 882.141 190.938 882.141 194C882.141 197.375 883.547 199.844 886.359 201.406C888.203 202.406 892.375 203.656 898.875 205.156L908.531 207.359C913.188 208.422 916.781 209.875 919.312 211.719C923.688 214.938 925.875 219.609 925.875 225.734C925.875 233.359 923.094 238.812 917.531 242.094C912 245.375 905.562 247.016 898.219 247.016C889.656 247.016 882.953 244.828 878.109 240.453C873.266 236.109 870.891 230.219 870.984 222.781H879.75ZM328.058 284.266C340.214 284.266 349.214 288.172 355.058 295.984C359.62 302.078 361.901 309.875 361.901 319.375C361.901 329.656 359.292 338.203 354.073 345.016C347.948 353.016 339.214 357.016 327.87 357.016C317.276 357.016 308.948 353.516 302.886 346.516C297.479 339.766 294.776 331.234 294.776 320.922C294.776 311.609 297.089 303.641 301.714 297.016C307.651 288.516 316.433 284.266 328.058 284.266ZM328.995 348.672C337.214 348.672 343.151 345.734 346.808 339.859C350.495 333.953 352.339 327.172 352.339 319.516C352.339 311.422 350.214 304.906 345.964 299.969C341.745 295.031 335.964 292.562 328.62 292.562C321.495 292.562 315.683 295.016 311.183 299.922C306.683 304.797 304.433 312 304.433 321.531C304.433 329.156 306.354 335.594 310.198 340.844C314.073 346.062 320.339 348.672 328.995 348.672ZM408.401 326.781L397.948 296.359L386.839 326.781H408.401ZM393.073 286.141H403.62L428.604 355H418.386L411.401 334.375H384.167L376.714 355H367.151L393.073 286.141ZM463.526 347.031C466.683 347.031 469.276 346.703 471.308 346.047C474.933 344.828 477.901 342.484 480.214 339.016C482.058 336.234 483.386 332.672 484.198 328.328C484.667 325.734 484.901 323.328 484.901 321.109C484.901 312.578 483.198 305.953 479.792 301.234C476.417 296.516 470.964 294.156 463.433 294.156H446.886V347.031H463.526ZM437.511 286.141H465.401C474.87 286.141 482.214 289.5 487.433 296.219C492.089 302.281 494.417 310.047 494.417 319.516C494.417 326.828 493.042 333.438 490.292 339.344C485.448 349.781 477.12 355 465.308 355H437.511V286.141ZM508.573 286.141H517.995V355H508.573V286.141ZM533.183 286.141H544.198L578.979 341.922V286.141H587.839V355H577.386L542.089 299.266V355H533.183V286.141ZM632.323 284.359C638.792 284.359 644.386 285.609 649.104 288.109C655.948 291.703 660.136 298 661.667 307H652.433C651.308 301.969 648.979 298.312 645.448 296.031C641.917 293.719 637.464 292.562 632.089 292.562C625.714 292.562 620.339 294.953 615.964 299.734C611.62 304.516 609.448 311.641 609.448 321.109C609.448 329.297 611.245 335.969 614.839 341.125C618.433 346.25 624.292 348.812 632.417 348.812C638.636 348.812 643.776 347.016 647.839 343.422C651.933 339.797 654.026 333.953 654.12 325.891H632.558V318.156H662.792V355H656.792L654.542 346.141C651.386 349.609 648.589 352.016 646.151 353.359C642.058 355.672 636.854 356.828 630.542 356.828C622.386 356.828 615.37 354.188 609.495 348.906C603.089 342.281 599.886 333.188 599.886 321.625C599.886 310.094 603.011 300.922 609.261 294.109C615.198 287.609 622.886 284.359 632.323 284.359ZM678.167 344.781H687.964V355H678.167V344.781Z" fill="#99CC66"/>
<path id="l" d="M258.168 268.585H276.241V386.106H343.812V402H258.168V268.585Z" fill="#99CC66"/>
<path id="backbar" d="M343 394H1269" stroke="#99CC66" stroke-width="16"/>
</g>
<defs>
<clipPath id="clip0_33_2">
<rect width="1264" height="611" fill="white"/>
</clipPath>
</defs>
</svg>
